{"title":"The.Comic.Strip.Complete.Collection.D5.DVDRip.x264.Iou1","uid":8558925,"size":1288266857,"categoryP":"video","categoryS":"tv_shows","magnet":"?xt=urn:btih:86b305f9aaab2d9a9235809c12e45b745bd50743&amp;dn=The.Comic.Strip.Complete.Collection.D5.DVDRip.x264.Iou1&amp;tr=udp%3A%2F%2Ftracker.openbittorrent.com%3A80&amp;tr=udp%3A%2F%2Fopen.demonii.com%3A1337&amp;tr=udp%3A%2F%2Ftracker.coppersurfer.tk%3A6969&amp;tr=udp%3A%2F%2Fexodus.desync.com%3A6969","seeders":1,"leechers":2,"uploader":"jaybee211","files":-1,"time":1370834060,"description":"Disc 5 Of 9\n\n20.The Yob                               : 720x556 57m 30s\n21.Didn't You Kil My Brother             : 720x560 53m 15s\n22.Funseekers                            : 720x554 48m 00s \n\nNote. Video/Audio Bitrate varies slightly in all 3 clips\n\nFormat                                   : MPEG-4\nFile size                                : 1.19 GiB\nDuration                                 : 2h 38mn 47s\nOverall bit rate mode                    : Variable\nOverall bit rate                         : 1 081 Kbps\n\nVideo\nFormat settings, CABAC                   : Yes\nFormat settings, ReFrames                : 1 frame\nCodec ID                                 : avc1\nDuration                                 : 2h 38mn 47s\nBit rate mode                            : Variable\nBit rate                                 : 996 Kbps\nFrame rate mode                          : Constant\nFrame rate                               : 25.000 fps\nBit depth                                : 8 bits\nScan type                                : Progressive\nBits/(Pixel*Frame)                       : 0.100\nStream size                              : 1.107 GiB (93%)\nWriting library                          : x264 core\n\nAudio\nFormat                                   : AAC\nDuration                                 : 2h 38mn 47s\nBit rate mode                            : Variable\nBit rate                                 : 79.1 Kbps\nMaximum bit rate                         : 88.5 Kbps\nChannel(s)                               : 2 channels\nChannel positions                        : Front: L R\nSampling rate                            : 48.0 KHz\nCompression mode                         : Lossy\nStream size                              : 83 MiB (7%)\nLanguage                                 : English\nSubtitles                                : None\n\nIMDB. &lt;a href=&quot; http://www.imdb.com/title/tt0083402/&quot; rel=&quot;nofollow&quot; target=&quot;_NEW&quot;&gt; http://www.imdb.com/title/tt0083402/&lt;/a&gt;\n\nScreens. &lt;a href=&quot; http://bayimg.com/FankGAaEc&quot; rel=&quot;nofollow&quot; target=&quot;_NEW&quot;&gt; http://bayimg.com/FankGAaEc&lt;/a&gt;\n\n         &lt;a href=&quot; http://bayimg.com/fankhaAEc&quot; rel=&quot;nofollow&quot; target=&quot;_NEW&quot;&gt; http://bayimg.com/fankhaAEc&lt;/a&gt;\n\n         &lt;a href=&quot; http://bayimg.com/fAnkiAAEc&quot; rel=&quot;nofollow&quot; target=&quot;_NEW&quot;&gt; http://bayimg.com/fAnkiAAEc&lt;/a&gt;  \n\nEnjoy.","torrent":{"xt":"urn:btih:86b305f9aaab2d9a9235809c12e45b745bd50743","amp;dn":"The.Comic.Strip.Complete.Collection.D5.DVDRip.x264.Iou1","amp;tr":["udp%3A%2F%2Ftracker.openbittorrent.com%3A80","udp%3A%2F%2Fopen.demonii.com%3A1337","udp%3A%2F%2Ftracker.coppersurfer.tk%3A6969","udp%3A%2F%2Fexodus.desync.com%3A6969"],"infoHash":"86b305f9aaab2d9a9235809c12e45b745bd50743","infoHashBuffer":{"type":"Buffer","data":[134,179,5,249,170,171,45,154,146,53,128,156,18,228,91,116,91,213,7,67]},"announce":[],"urlList":[]}}